<?xml version="1.0" encoding="UTF-8"?>
<svg id="Layer_1" data-name="Layer 1" xmlns="http://www.w3.org/2000/svg" viewBox="0 0 1777.98 473.79">
  <defs>
    <style>
      .cls-1 {
        fill: #179bd7;
      }

      .cls-2 {
        fill: #253b80;
      }
    </style>
  </defs>
  <path class="cls-2" d="m213.35.02H75.06c-9.46,0-17.51,6.87-18.99,16.22L.14,370.86c-.98,6.29,3.32,12.18,9.61,13.17.59.09,1.19.14,1.8.14h66.02c9.47,0,17.52-6.89,18.99-16.24l15.09-95.65c1.46-9.34,9.51-16.23,18.97-16.24h43.78c91.1,0,143.67-44.08,157.4-131.44,6.19-38.22.26-68.25-17.63-89.28C294.5,12.23,259.64.02,213.35.02h0Zm15.95,129.52c-7.56,49.62-45.48,49.62-82.14,49.62h-20.87l14.64-92.67c.89-5.6,5.71-9.73,11.38-9.73h9.56c24.97,0,48.53,0,60.7,14.24,7.26,8.49,9.48,21.11,6.71,38.54h0Zm397.43-1.6h-66.22c-5.67,0-10.5,4.13-11.38,9.73l-2.93,18.52-4.63-6.71c-14.34-20.81-46.31-27.76-78.22-27.76-73.18,0-135.69,55.43-147.86,133.18-6.33,38.78,2.67,75.87,24.67,101.73,20.18,23.78,49.06,33.69,83.41,33.69,58.97,0,91.66-37.91,91.66-37.91l-2.95,18.4c-1.01,6.29,3.28,12.2,9.56,13.2.6.1,1.2.14,1.8.14h59.65c9.47,0,17.52-6.89,18.99-16.24l35.79-226.66c1.01-6.26-3.26-12.16-9.52-13.16-.6-.1-1.21-.15-1.82-.15h0Zm-92.31,128.89c-6.39,37.83-36.42,63.23-74.72,63.23-19.23,0-34.6-6.17-44.47-17.86-9.79-11.61-13.51-28.13-10.39-46.53,5.97-37.51,36.5-63.74,74.21-63.74,18.81,0,34.09,6.25,44.16,18.04,10.09,11.91,14.09,28.53,11.2,46.85h0Zm445.01-128.89h-66.55c-6.37.01-12.33,3.17-15.91,8.43l-91.78,135.2-38.91-129.92c-2.45-8.14-9.94-13.71-18.44-13.71h-65.4c-6.37-.02-11.54,5.13-11.56,11.5,0,1.28.21,2.54.62,3.75l73.3,215.11-68.91,97.28c-3.69,5.19-2.47,12.39,2.72,16.07,1.95,1.39,4.29,2.13,6.68,2.13h66.47c6.3,0,12.2-3.07,15.79-8.25l221.34-319.5c3.63-5.23,2.33-12.41-2.9-16.04-1.93-1.34-4.22-2.06-6.57-2.06h0Z"/>
  <path class="cls-1" d="m1199.77.02h-138.31c-9.45,0-17.5,6.88-18.97,16.22l-55.93,354.62c-.99,6.28,3.29,12.17,9.56,13.16.6.09,1.2.14,1.8.14h70.98c6.62,0,12.24-4.83,13.27-11.36l15.87-100.52c1.46-9.34,9.51-16.23,18.97-16.24h43.76c91.12,0,143.67-44.08,157.42-131.44,6.21-38.22.24-68.25-17.65-89.28C1280.9,12.23,1246.06.02,1199.77.02h0Zm15.95,129.52c-7.54,49.62-45.46,49.62-82.14,49.62h-20.85l14.66-92.67c.87-5.6,5.69-9.73,11.36-9.73h9.56c24.95,0,48.53,0,60.7,14.24,7.26,8.49,9.46,21.11,6.69,38.54h0Zm397.41-1.6h-66.18c-5.67-.02-10.5,4.12-11.36,9.73l-2.93,18.52-4.65-6.71c-14.34-20.81-46.29-27.76-78.2-27.76-73.18,0-135.66,55.43-147.84,133.18-6.31,38.78,2.65,75.87,24.65,101.73,20.22,23.78,49.06,33.69,83.41,33.69,58.97,0,91.66-37.91,91.66-37.91l-2.95,18.4c-1.01,6.29,3.28,12.2,9.56,13.2.61.1,1.23.15,1.84.14h59.63c9.46,0,17.5-6.89,18.97-16.24l35.81-226.66c.97-6.3-3.35-12.2-9.65-13.17-.59-.09-1.18-.14-1.77-.13h0Zm-92.31,128.89c-6.35,37.83-36.42,63.23-74.72,63.23-19.19,0-34.6-6.17-44.47-17.86-9.79-11.61-13.47-28.13-10.39-46.53,6.01-37.51,36.5-63.74,74.21-63.74,18.81,0,34.09,6.25,44.16,18.04,10.13,11.91,14.13,28.53,11.2,46.85ZM1691.21,9.75l-56.76,361.11c-.99,6.28,3.29,12.17,9.56,13.16.6.09,1.2.14,1.8.14h57.06c9.48,0,17.53-6.88,18.99-16.24l55.97-354.6c.99-6.29-3.3-12.19-9.59-13.18-.59-.09-1.18-.14-1.78-.14h-63.9c-5.67.02-10.48,4.15-11.36,9.75Z"/>
</svg>